<svg xmlns="http://www.w3.org/2000/svg" version="1.1" xmlns:xlink="http://www.w3.org/1999/xlink" xmlns:svgjs="http://svgjs.com/svgjs" width="1427" height="1500" preserveAspectRatio="none" viewBox="0 0 1427 1500">
    <g mask="url(&quot;#SvgjsMask1006&quot;)" fill="none">
        <path d="M126.68 357C126.68 301.77 25.89 317.76 0 244.8C-37.45 139.26 -72.61 49.79 0 0C105.89 -72.61 178.5 0 357 0C535.5 0 535.5 0 714 0C892.5 0 892.5 0 1071 0C1160.25 0 1166.1 -22.85 1249.5 0C1344.6 26.06 1388.74 19.29 1428 97.81C1477.99 197.79 1428 227.4 1428 357C1428 535.5 1428 535.5 1428 714C1428 892.5 1428 892.5 1428 1071C1428 1249.5 1428 1249.5 1428 1428C1428 1606.5 1507.33 1765.17 1428 1785C1328.83 1809.79 1205.34 1517.25 1071 1517.25C986.88 1517.25 1080.7 1717.78 991.07 1785C902.2 1851.65 852.54 1785 714 1785C535.5 1785 535.5 1785 357 1785C178.5 1785 89.25 1874.25 0 1785C-89.25 1695.75 0 1606.5 0 1428C0 1249.5 0 1249.5 0 1071C0 892.5 0 892.5 0 714C0 588.57 -38.18 570.75 0 463.14C25.16 392.25 126.68 410.94 126.68 357" stroke="rgba(47, 45, 49, 1)" stroke-width="2"></path>
        <path d="M1071 246.21C1046.01 246.21 1022.32 306.64 1022.32 357C1022.32 384.66 1046.31 402.25 1071 402.25C1096.56 402.25 1122.82 385.09 1122.82 357C1122.82 307.07 1096.26 246.21 1071 246.21" stroke="rgba(47, 45, 49, 1)" stroke-width="2"></path>
        <path d="M357 977.69C308.3 977.69 255.63 1014.65 255.63 1071C255.63 1166.57 309.62 1281.54 357 1281.54C403.07 1281.54 442.53 1168.58 442.53 1071C442.53 1016.65 401.75 977.69 357 977.69" stroke="rgba(47, 45, 49, 1)" stroke-width="2"></path>
        <path d="M357 178.5C244.23 62.06 59.5 48.05 59.5 0C59.5 -41.2 208.25 0 357 0C535.5 0 535.5 0 714 0C872.66 0 992.23 -80.65 1031.33 0C1078.77 97.85 875.08 197.22 887.09 357C894.92 461.2 977.72 527.96 1071 527.96C1167.56 527.96 1168.36 441.87 1266.77 357C1346.86 287.93 1379.06 220.07 1428 220.07C1459.68 220.07 1428 288.53 1428 357C1428 535.5 1428 535.5 1428 714C1428 865.34 1509.14 963.06 1428 1016.67C1330.64 1081 1230.71 930.94 1071 949.88C1001.59 958.11 986.6 997.72 969.76 1071C931.67 1236.78 988.56 1253.06 961.15 1428C932.62 1610.06 946.96 1656.32 857.87 1785C823.38 1834.82 785.93 1785 714 1785C535.5 1785 535.5 1785 357 1785C178.5 1785 89.25 1874.25 0 1785C-89.25 1695.75 0 1606.5 0 1428C0 1249.5 0 1249.5 0 1071C0 892.5 0 892.5 0 714C0 709.17 -3.58 707.53 0 704.35C174.92 548.87 178.09 550.02 357 396.67C380.71 376.35 405.24 384.54 405.24 357C405.24 275.46 417.1 240.56 357 178.5" stroke="rgba(47, 45, 49, 1)" stroke-width="2"></path>
        <path d="M714 649.92C686.89 649.92 660.83 684.24 660.83 714C660.83 739 687.05 759.44 714 759.44C742.03 759.44 770.8 739.15 770.8 714C770.8 684.39 741.88 649.92 714 649.92" stroke="rgba(47, 45, 49, 1)" stroke-width="2"></path>
        <path d="M357 876.27C255.35 876.27 200.42 948.27 145.44 1071C76.84 1224.13 48.79 1299.21 109.85 1428C154.57 1522.33 248.12 1517.25 357 1517.25C401.45 1517.25 396.7 1477.49 416.5 1428C485.95 1254.37 552.98 1233.08 535.5 1071C523.23 957.22 450.38 876.27 357 876.27" stroke="rgba(47, 45, 49, 1)" stroke-width="2"></path>
        <path d="M1309 1428C1309 1333.42 1396.18 1218 1428 1218C1455.68 1218 1428 1323 1428 1428C1428 1479 1451.46 1530 1428 1530C1391.96 1530 1309 1489.42 1309 1428" stroke="rgba(47, 45, 49, 1)" stroke-width="2"></path>
        <path d="M646.46 357C585.44 189.05 537.16 125.99 561 0C570.93 -52.51 637.5 0 714 0C773.5 0 828.36 -43.79 833 0C847.29 134.71 801.31 182.03 751.86 357C741.81 392.57 737.41 421.08 714 421.08C684.71 421.08 661.94 399.59 646.46 357" stroke="rgba(47, 45, 49, 1)" stroke-width="2"></path>
        <path d="M1410.73 357C1419.27 349.55 1422.76 342.33 1428 342.33C1431.39 342.33 1428 349.66 1428 357C1428 535.5 1428 535.5 1428 714C1428 768.33 1469.52 813.75 1428 822.65C1291.02 852 1239.85 830.88 1071 790.5C1012.67 776.55 973.64 749.54 973.64 714C973.64 681.12 1026.74 689.81 1071 653.66C1245.28 511.31 1240.77 505.22 1410.73 357" stroke="rgba(47, 45, 49, 1)" stroke-width="2"></path>
        <path d="M219.69 714C219.69 664.77 291.11 595 357 595C416.74 595 470.94 663.59 470.94 714C470.94 753.52 415.09 774.85 357 774.85C289.46 774.85 219.69 754.69 219.69 714" stroke="rgba(47, 45, 49, 1)" stroke-width="2"></path>
        <path d="M0 981.75C9.13 981.75 35.26 1026.09 35.26 1071C35.26 1119.95 9.08 1169.48 0 1169.48C-8.55 1169.48 0 1120.24 0 1071C0 1026.38 -8.5 981.75 0 981.75" stroke="rgba(47, 45, 49, 1)" stroke-width="2"></path>
        <path d="M628.47 1071C649.85 989.14 664.98 921.71 714 921.71C769.02 921.71 817.27 982.16 836.55 1071C872.2 1235.31 851.31 1252.76 823.85 1428C795.37 1609.76 778.05 1611.49 724.66 1785C723.12 1789.99 719.33 1785 714 1785C535.5 1785 535.5 1785 357 1785C178.5 1785 127.5 1836 0 1785C-51 1764.6 -48.98 1644.92 0 1642.2C129.52 1635.01 216.69 1816.83 357 1765.17C507.58 1709.73 509.91 1611.79 581.78 1428C645.64 1264.7 583.74 1242.29 628.47 1071" stroke="rgba(47, 45, 49, 1)" stroke-width="2"></path>
    </g>
    <defs>
        <mask id="SvgjsMask1006">
            <rect width="1427" height="1500" fill="#ffffff"></rect>
        </mask>
    </defs>
</svg>